<svg id="Layer_1" viewBox="0 0 128 128" xmlns="http://www.w3.org/2000/svg" data-name="Layer 1"><path d="m36.94 27.94a9 9 0 1 1 -9-9 9.01357 9.01357 0 0 1 9 9z" fill="#ffdb80"/><path d="m22 64a9 9 0 1 1 -9-9 9.01357 9.01357 0 0 1 9 9z" fill="#fc785e"/><path d="m124 64a9 9 0 1 1 -9-9 9.01357 9.01357 0 0 1 9 9z" fill="#fc785e"/><path d="m109.06 100.06a9 9 0 1 1 -9-9 9.00072 9.00072 0 0 1 9 9z" fill="#ffdb80"/><path d="m73 115a9 9 0 1 1 -9-9 9.01357 9.01357 0 0 1 9 9z" fill="#81d9e3"/><path d="m36.94 100.06a9 9 0 1 1 -9-9 9.00714 9.00714 0 0 1 9 9z" fill="#9387a2"/><path d="m109.06 27.94a9 9 0 1 1 -9-9 9.00714 9.00714 0 0 1 9 9z" fill="#9387a2"/><path d="m64 0a13 13 0 1 0 13 13 12.99963 12.99963 0 0 0 -13-13zm0 22a9 9 0 1 1 9-9 9.01357 9.01357 0 0 1 -9 9z" fill="#2d4356"/><path d="m73 13a9 9 0 1 1 -9-9 9.01357 9.01357 0 0 1 9 9z" fill="#81d9e3"/><g fill="#2d4356"><path d="m63.043 7.6006a4.88875 4.88875 0 0 0 -4.56942 4.7744 2 2 0 1 0 4 0c0-.207.0977-.7002 1.001-.7979a1.99993 1.99993 0 1 0 -.43158-3.9765z"/><path d="m26.55958 27.3037a2.00037 2.00037 0 1 0 -3.1172-2.5078 4.88868 4.88868 0 0 0 .1455 6.6074 2.04207 2.04207 0 0 0 1.4424.5889 1.98336 1.98336 0 0 0 1.4228-3.3789.93619.93619 0 0 1 .1065-1.3096z"/><path d="m12.42768 65.5283c-.747-.0469-.8193-.7148-.8506-1.001a1.99982 1.99982 0 0 0 -3.9765.4297 4.88676 4.88676 0 0 0 4.77342 4.5703 2.02194 2.02194 0 0 0 2.02638-1.999 1.9764 1.9764 0 0 0 -1.9727-2z"/><path d="m28.61428 101.5479a.93848.93848 0 0 1 -1.3106-.1055 1.9996 1.9996 0 0 0 -2.5078 3.1152 5.09477 5.09477 0 0 0 3.2363 1.2149 4.90017 4.90017 0 0 0 3.3701-1.3575 2.02167 2.02167 0 0 0 .0215-2.8466 1.97512 1.97512 0 0 0 -2.8095-.0205z"/><path d="m67.53028 113.6006h-.002a1.97653 1.97653 0 0 0 -1.999 1.9717c-.0469.748-.7158.8203-1.002.8515a1.99994 1.99994 0 0 0 .212 3.9883 2.05019 2.05019 0 0 0 .21772-.0117 4.8893 4.8893 0 0 0 4.57128-4.7715 2.02209 2.02209 0 0 0 -1.998-2.0283z"/><path d="m101.58788 96.5967a2.00015 2.00015 0 0 0 -.002 2.8281c.1465.1465.4248.5645-.1445 1.2715a2.00022 2.00022 0 1 0 3.1152 2.5098 4.88867 4.88867 0 0 0 -.14058-6.6075 1.99926 1.99926 0 0 0 -2.82812-.0019z"/><path d="m115.62788 58.4727a2.02165 2.02165 0 0 0 -2.0263 1.998 1.97614 1.97614 0 0 0 1.9707 2.001c.747.0469.8193.7168.8506 1.0019a2.02772 2.02772 0 0 0 2.20212 1.7744 1.9995 1.9995 0 0 0 1.77438-2.2021 4.88776 4.88776 0 0 0 -4.7715-4.5732z"/><path d="m99.42578 26.415c.1474-.1464.5625-.4248 1.2695.1446a2.00026 2.00026 0 0 0 2.5098-3.1153 4.88719 4.88719 0 0 0 -6.6055.1407 1.99977 1.99977 0 0 0 2.8262 2.83z"/><path d="m27.94 14.94a13 13 0 1 0 13 13 12.99963 12.99963 0 0 0 -13-13zm0 22a9 9 0 1 1 9-9 9.00714 9.00714 0 0 1 -9 9z"/><path d="m13 51a13 13 0 1 0 13 13 12.99963 12.99963 0 0 0 -13-13zm0 22a9 9 0 1 1 9-9 9.01357 9.01357 0 0 1 -9 9z"/><path d="m27.94 87.06a13 13 0 1 0 13 13 12.99963 12.99963 0 0 0 -13-13zm0 22a9 9 0 1 1 9-9 9.00072 9.00072 0 0 1 -9 9z"/><path d="m100.06 14.94a13 13 0 1 0 13 13 12.99963 12.99963 0 0 0 -13-13zm0 22a9 9 0 1 1 9-9 9.01357 9.01357 0 0 1 -9 9z"/><path d="m115 51a13 13 0 1 0 13 13 12.99963 12.99963 0 0 0 -13-13zm0 22a9 9 0 1 1 9-9 9.01357 9.01357 0 0 1 -9 9z"/><path d="m100.06 87.06a13 13 0 1 0 13 13 12.99963 12.99963 0 0 0 -13-13zm0 22a9 9 0 1 1 9-9 9.00714 9.00714 0 0 1 -9 9z"/><path d="m64 102a13 13 0 1 0 13 13 12.99963 12.99963 0 0 0 -13-13zm0 22a9 9 0 1 1 9-9 9.01357 9.01357 0 0 1 -9 9z"/><circle cx="44.483" cy="16.883" r="2"/><circle cx="16.884" cy="44.484" r="2"/><circle cx="16.884" cy="83.514" r="2"/><circle cx="44.486" cy="111.116" r="2"/><circle cx="83.519" cy="111.115" r="2"/><circle cx="111.117" cy="83.514" r="2"/><circle cx="111.117" cy="44.481" r="2"/><circle cx="83.517" cy="16.938" r="2"/><circle cx="61.237" cy="34.103" r="2"/><circle cx="71.073" cy="34.886" r="2"/><circle cx="80.125" cy="38.824" r="2"/><circle cx="87.407" cy="45.484" r="2"/><circle cx="92.147" cy="54.146" r="2"/><circle cx="93.803" cy="63.936" r="2"/><circle cx="92.184" cy="73.736" r="2"/><circle cx="87.482" cy="82.415" r="2"/><circle cx="80.224" cy="89.106" r="2"/><circle cx="71.192" cy="93.075" r="2"/><circle cx="61.352" cy="93.898" r="2"/><circle cx="51.779" cy="91.487" r="2"/><circle cx="43.513" cy="86.095" r="2"/><circle cx="37.435" cy="78.316" r="2"/><circle cx="34.197" cy="68.987" r="2"/><circle cx="34.197" cy="59.117" r="2"/><circle cx="37.381" cy="49.774" r="2"/><circle cx="43.43" cy="41.975" r="2"/><circle cx="51.673" cy="36.547" r="2"/></g><path d="m73 13a8.267 8.267 0 0 1 -.06 1 8.99523 8.99523 0 0 0 -17.88 0 8.267 8.267 0 0 1 -.06-1 9 9 0 0 1 18 0z" fill="#e8fbfc" opacity=".3"/><path d="m73 13a9 9 0 0 1 -18 0 8.26549 8.26549 0 0 1 .06-1 8.99523 8.99523 0 0 0 17.88 0 8.26549 8.26549 0 0 1 .06 1z" fill="#0f423c" opacity=".25"/><path d="m36.94 27.94a8.267 8.267 0 0 1 -.06 1 8.99523 8.99523 0 0 0 -17.88 0 8.267 8.267 0 0 1 -.06-1 9 9 0 0 1 18 0z" fill="#f9edd2" opacity=".5"/><path d="m36.94 27.94a9 9 0 0 1 -18 0 8.26549 8.26549 0 0 1 .06-1 8.99523 8.99523 0 0 0 17.88 0 8.26549 8.26549 0 0 1 .06 1z" fill="#ad9359" opacity=".45"/><path d="m22 64a8.267 8.267 0 0 1 -.06 1 8.99523 8.99523 0 0 0 -17.88 0 8.267 8.267 0 0 1 -.06-1 9 9 0 0 1 18 0z" fill="#f9dbd7" opacity=".3"/><path d="m22 64a9 9 0 0 1 -18 0 8.26549 8.26549 0 0 1 .06-1 8.99523 8.99523 0 0 0 17.88 0 8.26549 8.26549 0 0 1 .06 1z" fill="#a54b3f" opacity=".5"/><path d="m36.94 100.06a8.267 8.267 0 0 1 -.06 1 8.99523 8.99523 0 0 0 -17.88 0 8.267 8.267 0 0 1 -.06-1 9 9 0 1 1 18 0z" fill="#dccef2" opacity=".2"/><path d="m36.94 100.06a9 9 0 0 1 -18 0 8.26624 8.26624 0 0 1 .06-1 8.99523 8.99523 0 0 0 17.88 0 8.26624 8.26624 0 0 1 .06 1z" fill="#5f5968" opacity=".5"/><path d="m109.06 27.94a8.267 8.267 0 0 1 -.06 1 8.99523 8.99523 0 0 0 -17.88 0 8.267 8.267 0 0 1 -.06-1 9 9 0 0 1 18 0z" fill="#dccef2" opacity=".2"/><path d="m109.06 27.94a9 9 0 0 1 -18 0 8.26549 8.26549 0 0 1 .06-1 8.99523 8.99523 0 0 0 17.88 0 8.26549 8.26549 0 0 1 .06 1z" fill="#5f5968" opacity=".5"/><path d="m124 64a8.267 8.267 0 0 1 -.06 1 8.99523 8.99523 0 0 0 -17.88 0 8.267 8.267 0 0 1 -.06-1 9 9 0 0 1 18 0z" fill="#f9dbd7" opacity=".3"/><path d="m124 64a9 9 0 0 1 -18 0 8.26547 8.26547 0 0 1 .06-1 8.99523 8.99523 0 0 0 17.88 0 8.26547 8.26547 0 0 1 .06 1z" fill="#a54b3f" opacity=".5"/><path d="m109.06 100.06a8.267 8.267 0 0 1 -.06 1 8.99523 8.99523 0 0 0 -17.88 0 8.267 8.267 0 0 1 -.06-1 9 9 0 1 1 18 0z" fill="#f9edd2" opacity=".5"/><path d="m109.06 100.06a9 9 0 0 1 -18 0 8.26624 8.26624 0 0 1 .06-1 8.99523 8.99523 0 0 0 17.88 0 8.26624 8.26624 0 0 1 .06 1z" fill="#ad9359" opacity=".45"/><path d="m73 115a8.267 8.267 0 0 1 -.06 1 8.99523 8.99523 0 0 0 -17.88 0 8.267 8.267 0 0 1 -.06-1 9 9 0 0 1 18 0z" fill="#e8fbfc" opacity=".3"/><path d="m73 115a9 9 0 0 1 -18 0 8.26549 8.26549 0 0 1 .06-1 8.99523 8.99523 0 0 0 17.88 0 8.26549 8.26549 0 0 1 .06 1z" fill="#0f423c" opacity=".25"/></svg>